<svg width="256" height="24" viewBox="0 0 256 24" fill="none" xmlns="http://www.w3.org/2000/svg">
<path d="M22.34 9.33L20.34 8.33C19.97 8.15 19.51 8.29 19.33 8.66C19.14 9.04 19.29 9.49 19.66 9.67L21.25 10.46V15.25L17.5 15.26V5C17.5 3 16.16 2 14.5 2H6.5C4.84 2 3.5 3 3.5 5V21.25H2C1.59 21.25 1.25 21.59 1.25 22C1.25 22.41 1.59 22.75 2 22.75H19C19.41 22.75 19.75 22.41 19.75 22C19.75 21.59 19.41 21.25 19 21.25H17.5V16.76L22 16.75C22.42 16.75 22.75 16.41 22.75 16V10C22.75 9.72 22.59 9.46 22.34 9.33ZM6 6.89C6 5.5 6.85 5 7.89 5H13.12C14.15 5 15 5.5 15 6.89V8.12C15 9.5 14.15 10 13.11 10H7.89C6.85 10 6 9.5 6 8.11V6.89ZM6.5 12.25H9.5C9.91 12.25 10.25 12.59 10.25 13C10.25 13.41 9.91 13.75 9.5 13.75H6.5C6.09 13.75 5.75 13.41 5.75 13C5.75 12.59 6.09 12.25 6.5 12.25Z" fill="#90A3BF"/>
<path d="M34.41 18.168C33.71 18.168 33.0893 18.028 32.548 17.748C32.016 17.468 31.596 17.09 31.288 16.614C30.9893 16.1287 30.84 15.5873 30.84 14.99C30.84 14.318 31.0267 13.73 31.4 13.226C31.7733 12.722 32.2867 12.3627 32.94 12.148L32.912 12.498C32.4173 12.302 32.03 11.9893 31.75 11.56C31.4793 11.1213 31.344 10.65 31.344 10.146C31.344 9.614 31.4747 9.14267 31.736 8.732C32.0067 8.32133 32.3707 7.99933 32.828 7.766C33.2947 7.52333 33.822 7.402 34.41 7.402C34.998 7.402 35.5207 7.51867 35.978 7.752C36.4353 7.98533 36.7947 8.312 37.056 8.732C37.3267 9.14267 37.462 9.614 37.462 10.146C37.462 10.678 37.3173 11.154 37.028 11.574C36.748 11.994 36.3747 12.3067 35.908 12.512L35.866 12.148C36.5287 12.3627 37.0467 12.7267 37.42 13.24C37.7933 13.744 37.98 14.3273 37.98 14.99C37.98 15.5873 37.826 16.1287 37.518 16.614C37.2193 17.09 36.7993 17.468 36.258 17.748C35.726 18.028 35.11 18.168 34.41 18.168ZM34.41 16.978C34.8487 16.978 35.2313 16.894 35.558 16.726C35.8847 16.558 36.1367 16.3247 36.314 16.026C36.5007 15.718 36.594 15.368 36.594 14.976C36.594 14.5747 36.5007 14.2247 36.314 13.926C36.1367 13.618 35.8847 13.3847 35.558 13.226C35.2313 13.058 34.8487 12.974 34.41 12.974C33.9713 12.974 33.584 13.058 33.248 13.226C32.9213 13.3847 32.6693 13.618 32.492 13.926C32.3147 14.2247 32.226 14.5747 32.226 14.976C32.226 15.368 32.3147 15.718 32.492 16.026C32.6693 16.3247 32.9213 16.558 33.248 16.726C33.584 16.894 33.9713 16.978 34.41 16.978ZM34.41 11.784C34.7273 11.784 35.0073 11.714 35.25 11.574C35.502 11.434 35.7027 11.2473 35.852 11.014C36.0013 10.7713 36.076 10.4913 36.076 10.174C36.076 9.85667 36.0013 9.58133 35.852 9.348C35.7027 9.11467 35.502 8.93267 35.25 8.802C35.0073 8.662 34.7273 8.592 34.41 8.592C34.0833 8.592 33.794 8.662 33.542 8.802C33.29 8.93267 33.0893 9.11467 32.94 9.348C32.7907 9.58133 32.716 9.85667 32.716 10.174C32.716 10.4913 32.7907 10.7713 32.94 11.014C33.0893 11.2473 33.29 11.434 33.542 11.574C33.794 11.714 34.0833 11.784 34.41 11.784ZM43.6067 18.168C42.776 18.168 42.048 17.944 41.4227 17.496C40.8067 17.0387 40.326 16.4087 39.9807 15.606C39.6354 14.794 39.4627 13.8513 39.4627 12.778C39.4627 11.7047 39.6354 10.7667 39.9807 9.964C40.326 9.152 40.8067 8.522 41.4227 8.074C42.0387 7.626 42.762 7.402 43.5927 7.402C44.4234 7.402 45.1467 7.626 45.7627 8.074C46.3787 8.522 46.8594 9.152 47.2047 9.964C47.5594 10.7667 47.7367 11.7047 47.7367 12.778C47.7367 13.8513 47.564 14.794 47.2187 15.606C46.8734 16.418 46.388 17.048 45.7627 17.496C45.1467 17.944 44.428 18.168 43.6067 18.168ZM43.6067 16.894C44.1667 16.894 44.652 16.726 45.0627 16.39C45.4734 16.0447 45.7907 15.564 46.0147 14.948C46.248 14.332 46.3647 13.6087 46.3647 12.778C46.3647 11.9473 46.248 11.224 46.0147 10.608C45.7907 9.992 45.4687 9.516 45.0487 9.18C44.638 8.844 44.1527 8.676 43.5927 8.676C43.0327 8.676 42.5474 8.844 42.1367 9.18C41.726 9.516 41.404 9.992 41.1707 10.608C40.9467 11.224 40.8347 11.9473 40.8347 12.778C40.8347 13.5993 40.9467 14.318 41.1707 14.934C41.404 15.55 41.726 16.0307 42.1367 16.376C42.5567 16.7213 43.0467 16.894 43.6067 16.894ZM49.5375 18V7.57H50.9095V16.74H55.4875V18H49.5375Z" fill="#90A3BF"/>
<path d="M86 2C80.48 2 76 6.48 76 12C76 17.52 80.48 22 86 22C91.52 22 96 17.52 96 12C96 6.48 91.53 2 86 2Z" fill="#90A3BF"/>
<rect x="78" y="4" width="16" height="16" rx="8" fill="white"/>
<path d="M86 6C82.688 6 80 8.688 80 12C80 15.312 82.688 18 86 18C89.312 18 92 15.312 92 12C92 8.688 89.318 6 86 6Z" fill="#90A3BF"/>
<rect x="82" y="8" width="8" height="8" rx="4" fill="white"/>
<rect x="85" y="17" width="2" height="4" fill="#90A3BF"/>
<rect x="91" y="11" width="4" height="2" fill="#90A3BF"/>
<rect x="77" y="11" width="4" height="2" fill="#90A3BF"/>
<path d="M103.162 18V7.57H104.422L108.328 13.128H107.684L111.562 7.57H112.822V18H111.436V9.306L111.926 9.46L108.048 14.92H107.936L104.1 9.46L104.534 9.306V18H103.162ZM116.917 18.168C116.422 18.168 115.983 18.0793 115.601 17.902C115.227 17.7153 114.933 17.4633 114.719 17.146C114.504 16.8193 114.397 16.446 114.397 16.026C114.397 15.6247 114.481 15.2653 114.649 14.948C114.826 14.6213 115.097 14.346 115.461 14.122C115.834 13.898 116.301 13.7393 116.861 13.646L119.661 13.184V14.276L117.155 14.696C116.669 14.78 116.315 14.934 116.091 15.158C115.876 15.382 115.769 15.6573 115.769 15.984C115.769 16.292 115.89 16.5487 116.133 16.754C116.385 16.9593 116.697 17.062 117.071 17.062C117.547 17.062 117.957 16.964 118.303 16.768C118.657 16.5627 118.933 16.2873 119.129 15.942C119.334 15.5967 119.437 15.214 119.437 14.794V12.876C119.437 12.4653 119.283 12.134 118.975 11.882C118.676 11.6207 118.279 11.49 117.785 11.49C117.355 11.49 116.973 11.602 116.637 11.826C116.31 12.0407 116.067 12.33 115.909 12.694L114.775 12.106C114.915 11.7607 115.139 11.4527 115.447 11.182C115.755 10.902 116.114 10.6827 116.525 10.524C116.935 10.3653 117.365 10.286 117.813 10.286C118.391 10.286 118.9 10.398 119.339 10.622C119.777 10.8367 120.118 11.14 120.361 11.532C120.613 11.9147 120.739 12.3627 120.739 12.876V18H119.465V16.572L119.703 16.656C119.544 16.9547 119.329 17.216 119.059 17.44C118.788 17.664 118.471 17.8413 118.107 17.972C117.743 18.1027 117.346 18.168 116.917 18.168ZM122.477 18V10.454H123.751V11.924L123.541 11.798C123.728 11.322 124.027 10.9533 124.437 10.692C124.857 10.4213 125.347 10.286 125.907 10.286C126.449 10.286 126.929 10.4073 127.349 10.65C127.779 10.8927 128.115 11.2287 128.357 11.658C128.609 12.0873 128.735 12.5727 128.735 13.114V18H127.419V13.534C127.419 13.114 127.345 12.7593 127.195 12.47C127.046 12.1807 126.831 11.9567 126.551 11.798C126.281 11.63 125.968 11.546 125.613 11.546C125.259 11.546 124.941 11.63 124.661 11.798C124.391 11.9567 124.176 12.1853 124.017 12.484C123.859 12.7733 123.779 13.1233 123.779 13.534V18H122.477ZM132.992 18.168C132.451 18.168 131.961 18.042 131.522 17.79C131.093 17.538 130.757 17.188 130.514 16.74C130.281 16.2827 130.164 15.76 130.164 15.172V10.454H131.466V15.032C131.466 15.4053 131.541 15.732 131.69 16.012C131.849 16.292 132.064 16.5113 132.334 16.67C132.614 16.8287 132.932 16.908 133.286 16.908C133.641 16.908 133.954 16.8287 134.224 16.67C134.504 16.5113 134.719 16.2827 134.868 15.984C135.027 15.6853 135.106 15.3307 135.106 14.92V10.454H136.422V18H135.148V16.53L135.358 16.656C135.181 17.132 134.878 17.5053 134.448 17.776C134.028 18.0373 133.543 18.168 132.992 18.168ZM140.371 18.168C139.877 18.168 139.438 18.0793 139.055 17.902C138.682 17.7153 138.388 17.4633 138.173 17.146C137.959 16.8193 137.851 16.446 137.851 16.026C137.851 15.6247 137.935 15.2653 138.103 14.948C138.281 14.6213 138.551 14.346 138.915 14.122C139.289 13.898 139.755 13.7393 140.315 13.646L143.115 13.184V14.276L140.609 14.696C140.124 14.78 139.769 14.934 139.545 15.158C139.331 15.382 139.223 15.6573 139.223 15.984C139.223 16.292 139.345 16.5487 139.587 16.754C139.839 16.9593 140.152 17.062 140.525 17.062C141.001 17.062 141.412 16.964 141.757 16.768C142.112 16.5627 142.387 16.2873 142.583 15.942C142.789 15.5967 142.891 15.214 142.891 14.794V12.876C142.891 12.4653 142.737 12.134 142.429 11.882C142.131 11.6207 141.734 11.49 141.239 11.49C140.81 11.49 140.427 11.602 140.091 11.826C139.765 12.0407 139.522 12.33 139.363 12.694L138.229 12.106C138.369 11.7607 138.593 11.4527 138.901 11.182C139.209 10.902 139.569 10.6827 139.979 10.524C140.39 10.3653 140.819 10.286 141.267 10.286C141.846 10.286 142.355 10.398 142.793 10.622C143.232 10.8367 143.573 11.14 143.815 11.532C144.067 11.9147 144.193 12.3627 144.193 12.876V18H142.919V16.572L143.157 16.656C142.999 16.9547 142.784 17.216 142.513 17.44C142.243 17.664 141.925 17.8413 141.561 17.972C141.197 18.1027 140.801 18.168 140.371 18.168ZM145.932 18V7.402H147.234V18H145.932Z" fill="#90A3BF"/>
<path d="M175 2C172.38 2 170.25 4.13 170.25 6.75C170.25 9.32 172.26 11.4 174.88 11.49C174.96 11.48 175.04 11.48 175.1 11.49C175.12 11.49 175.13 11.49 175.15 11.49C175.16 11.49 175.16 11.49 175.17 11.49C177.73 11.4 179.74 9.32 179.75 6.75C179.75 4.13 177.62 2 175 2Z" fill="#90A3BF"/>
<path d="M180.08 14.15C177.29 12.29 172.74 12.29 169.93 14.15C168.66 15 167.96 16.15 167.96 17.38C167.96 18.61 168.66 19.75 169.92 20.59C171.32 21.53 173.16 22 175 22C176.84 22 178.68 21.53 180.08 20.59C181.34 19.74 182.04 18.6 182.04 17.36C182.03 16.13 181.34 14.99 180.08 14.15Z" fill="#90A3BF"/>
<path d="M185.99 7.34001C186.15 9.28001 184.77 10.98 182.86 11.21C182.85 11.21 182.85 11.21 182.84 11.21H182.81C182.75 11.21 182.69 11.21 182.64 11.23C181.67 11.28 180.78 10.97 180.11 10.4C181.14 9.48001 181.73 8.10001 181.61 6.60001C181.54 5.79001 181.26 5.05001 180.84 4.42001C181.22 4.23001 181.66 4.11001 182.11 4.07001C184.07 3.90001 185.82 5.36001 185.99 7.34001Z" fill="#90A3BF"/>
<path d="M187.99 16.59C187.91 17.56 187.29 18.4 186.25 18.97C185.25 19.52 183.99 19.78 182.74 19.75C183.46 19.1 183.88 18.29 183.96 17.43C184.06 16.19 183.47 15 182.29 14.05C181.62 13.52 180.84 13.1 179.99 12.79C182.2 12.15 184.98 12.58 186.69 13.96C187.61 14.7 188.08 15.63 187.99 16.59Z" fill="#90A3BF"/>
<path d="M196.756 18V17.048L199.64 13.926C200.209 13.3193 200.662 12.82 200.998 12.428C201.343 12.036 201.595 11.686 201.754 11.378C201.913 11.07 201.992 10.7433 201.992 10.398C201.992 9.82867 201.824 9.39 201.488 9.082C201.152 8.774 200.709 8.62 200.158 8.62C199.598 8.62 199.122 8.78333 198.73 9.11C198.338 9.42733 198.067 9.88 197.918 10.468L196.672 10.146C196.793 9.586 197.017 9.10067 197.344 8.69C197.671 8.27933 198.077 7.962 198.562 7.738C199.047 7.514 199.579 7.402 200.158 7.402C200.793 7.402 201.348 7.528 201.824 7.78C202.309 8.02267 202.687 8.36333 202.958 8.802C203.238 9.24067 203.378 9.74933 203.378 10.328C203.378 10.7107 203.299 11.084 203.14 11.448C202.981 11.812 202.748 12.1993 202.44 12.61C202.132 13.0113 201.731 13.478 201.236 14.01L198.66 16.81H203.602V18H196.756ZM207.403 18V7.57H211.085C211.775 7.57 212.382 7.70067 212.905 7.962C213.427 8.22333 213.833 8.59667 214.123 9.082C214.421 9.56733 214.571 10.1367 214.571 10.79C214.571 11.4433 214.421 12.0127 214.123 12.498C213.833 12.974 213.427 13.3473 212.905 13.618C212.391 13.8793 211.785 14.01 211.085 14.01H208.775V18H207.403ZM208.775 12.75H211.127C211.547 12.75 211.911 12.6707 212.219 12.512C212.527 12.3533 212.765 12.1247 212.933 11.826C213.101 11.5273 213.185 11.182 213.185 10.79C213.185 10.3887 213.101 10.0433 212.933 9.754C212.765 9.45533 212.527 9.22667 212.219 9.068C211.911 8.90933 211.547 8.83 211.127 8.83H208.775V12.75ZM219.191 18.168C218.463 18.168 217.814 17.9953 217.245 17.65C216.675 17.3047 216.227 16.8333 215.901 16.236C215.574 15.6293 215.411 14.9527 215.411 14.206C215.411 13.45 215.569 12.778 215.887 12.19C216.213 11.602 216.652 11.14 217.203 10.804C217.763 10.4587 218.388 10.286 219.079 10.286C219.639 10.286 220.133 10.3887 220.563 10.594C221.001 10.79 221.37 11.0607 221.669 11.406C221.977 11.742 222.21 12.1293 222.369 12.568C222.537 12.9973 222.621 13.4453 222.621 13.912C222.621 14.0147 222.611 14.1313 222.593 14.262C222.583 14.3833 222.569 14.5 222.551 14.612H216.363V13.492H221.795L221.179 13.996C221.263 13.5107 221.216 13.0767 221.039 12.694C220.861 12.3113 220.6 12.008 220.255 11.784C219.909 11.56 219.517 11.448 219.079 11.448C218.64 11.448 218.239 11.56 217.875 11.784C217.511 12.008 217.226 12.33 217.021 12.75C216.825 13.1607 216.745 13.6507 216.783 14.22C216.745 14.7707 216.829 15.256 217.035 15.676C217.249 16.0867 217.548 16.4087 217.931 16.642C218.323 16.866 218.747 16.978 219.205 16.978C219.709 16.978 220.133 16.8613 220.479 16.628C220.824 16.3947 221.104 16.096 221.319 15.732L222.411 16.292C222.261 16.6373 222.028 16.9547 221.711 17.244C221.403 17.524 221.034 17.748 220.605 17.916C220.185 18.084 219.713 18.168 219.191 18.168ZM227.622 18.168C226.894 18.168 226.236 18 225.648 17.664C225.06 17.3187 224.594 16.8473 224.248 16.25C223.903 15.6527 223.73 14.976 223.73 14.22C223.73 13.464 223.898 12.792 224.234 12.204C224.58 11.616 225.046 11.1493 225.634 10.804C226.222 10.4587 226.885 10.286 227.622 10.286C228.35 10.286 229.008 10.4587 229.596 10.804C230.184 11.14 230.646 11.602 230.982 12.19C231.328 12.778 231.5 13.4547 231.5 14.22C231.5 14.9853 231.323 15.6667 230.968 16.264C230.614 16.852 230.142 17.3187 229.554 17.664C228.976 18 228.332 18.168 227.622 18.168ZM227.622 16.908C228.089 16.908 228.509 16.7913 228.882 16.558C229.265 16.3247 229.564 16.0027 229.778 15.592C230.002 15.1813 230.114 14.724 230.114 14.22C230.114 13.7067 230.002 13.254 229.778 12.862C229.564 12.4607 229.265 12.1433 228.882 11.91C228.509 11.6673 228.089 11.546 227.622 11.546C227.146 11.546 226.717 11.6673 226.334 11.91C225.961 12.1433 225.662 12.4607 225.438 12.862C225.214 13.254 225.102 13.7067 225.102 14.22C225.102 14.724 225.214 15.1813 225.438 15.592C225.662 16.0027 225.961 16.3247 226.334 16.558C226.717 16.7913 227.146 16.908 227.622 16.908ZM232.919 20.8V10.454H234.193V12.078L234.025 11.756C234.305 11.308 234.687 10.9533 235.173 10.692C235.658 10.4213 236.213 10.286 236.839 10.286C237.548 10.286 238.183 10.4587 238.743 10.804C239.312 11.1493 239.76 11.6207 240.087 12.218C240.413 12.806 240.577 13.478 240.577 14.234C240.577 14.9713 240.413 15.6387 240.087 16.236C239.76 16.8333 239.312 17.3047 238.743 17.65C238.183 17.9953 237.543 18.168 236.825 18.168C236.218 18.168 235.663 18.0327 235.159 17.762C234.664 17.4913 234.281 17.1087 234.011 16.614L234.221 16.39V20.8H232.919ZM236.727 16.908C237.203 16.908 237.627 16.7913 238.001 16.558C238.374 16.3247 238.663 16.0073 238.869 15.606C239.083 15.1953 239.191 14.738 239.191 14.234C239.191 13.7113 239.083 13.254 238.869 12.862C238.663 12.4607 238.374 12.1433 238.001 11.91C237.627 11.6673 237.203 11.546 236.727 11.546C236.251 11.546 235.821 11.6627 235.439 11.896C235.065 12.1293 234.767 12.4513 234.543 12.862C234.328 13.2633 234.221 13.7207 234.221 14.234C234.221 14.738 234.328 15.1953 234.543 15.606C234.767 16.0073 235.065 16.3247 235.439 16.558C235.821 16.7913 236.251 16.908 236.727 16.908ZM242.004 18V7.402H243.306V18H242.004ZM248.518 18.168C247.79 18.168 247.141 17.9953 246.572 17.65C246.003 17.3047 245.555 16.8333 245.228 16.236C244.901 15.6293 244.738 14.9527 244.738 14.206C244.738 13.45 244.897 12.778 245.214 12.19C245.541 11.602 245.979 11.14 246.53 10.804C247.09 10.4587 247.715 10.286 248.406 10.286C248.966 10.286 249.461 10.3887 249.89 10.594C250.329 10.79 250.697 11.0607 250.996 11.406C251.304 11.742 251.537 12.1293 251.696 12.568C251.864 12.9973 251.948 13.4453 251.948 13.912C251.948 14.0147 251.939 14.1313 251.92 14.262C251.911 14.3833 251.897 14.5 251.878 14.612H245.69V13.492H251.122L250.506 13.996C250.59 13.5107 250.543 13.0767 250.366 12.694C250.189 12.3113 249.927 12.008 249.582 11.784C249.237 11.56 248.845 11.448 248.406 11.448C247.967 11.448 247.566 11.56 247.202 11.784C246.838 12.008 246.553 12.33 246.348 12.75C246.152 13.1607 246.073 13.6507 246.11 14.22C246.073 14.7707 246.157 15.256 246.362 15.676C246.577 16.0867 246.875 16.4087 247.258 16.642C247.65 16.866 248.075 16.978 248.532 16.978C249.036 16.978 249.461 16.8613 249.806 16.628C250.151 16.3947 250.431 16.096 250.646 15.732L251.738 16.292C251.589 16.6373 251.355 16.9547 251.038 17.244C250.73 17.524 250.361 17.748 249.932 17.916C249.512 18.084 249.041 18.168 248.518 18.168Z" fill="#90A3BF"/>
</svg>
