<svg width="259" height="16" viewBox="0 0 259 16" fill="none" xmlns="http://www.w3.org/2000/svg">
<path d="M6.17594 12.3041C5.32261 12.3041 4.52261 12.1441 3.77594 11.8241C3.02928 11.5041 2.37328 11.0614 1.80794 10.4961C1.24261 9.93073 0.799944 9.27473 0.479944 8.52806C0.159944 7.78139 -5.55515e-05 6.98139 -5.55515e-05 6.12806C-5.55515e-05 5.28539 0.154611 4.49606 0.463944 3.76006C0.783944 3.01339 1.22661 2.35739 1.79194 1.79206C2.35728 1.22673 3.01328 0.789393 3.75994 0.48006C4.50661 0.16006 5.31194 6.00815e-05 6.17594 6.00815e-05C7.01861 6.00815e-05 7.80794 0.16006 8.54394 0.48006C9.29061 0.789393 9.94661 1.22673 10.5119 1.79206C11.0773 2.35739 11.5199 3.01339 11.8399 3.76006C12.1599 4.49606 12.3199 5.28539 12.3199 6.12806C12.3199 6.99206 12.1599 7.79739 11.8399 8.54406C11.5199 9.28006 11.0773 9.93073 10.5119 10.4961C9.94661 11.0614 9.29061 11.5041 8.54394 11.8241C7.80794 12.1441 7.01861 12.3041 6.17594 12.3041ZM6.17594 10.9441C6.83728 10.9441 7.45595 10.8214 8.03195 10.5761C8.61861 10.3307 9.13061 9.98939 9.56794 9.55206C10.0053 9.11473 10.3466 8.60273 10.5919 8.01606C10.8373 7.42939 10.9599 6.80006 10.9599 6.12806C10.9599 5.46673 10.8373 4.84806 10.5919 4.27206C10.3466 3.69606 9.99994 3.18939 9.55194 2.75206C9.11461 2.31473 8.60794 1.97339 8.03195 1.72806C7.45595 1.47206 6.83728 1.34406 6.17594 1.34406C5.50394 1.34406 4.87461 1.46673 4.28794 1.71206C3.70128 1.95739 3.18928 2.29873 2.75194 2.73606C2.31461 3.17339 1.97328 3.68539 1.72794 4.27206C1.48261 4.84806 1.35994 5.46673 1.35994 6.12806C1.35994 6.80006 1.48261 7.42939 1.72794 8.01606C1.97328 8.60273 2.31461 9.11473 2.75194 9.55206C3.18928 9.98939 3.70128 10.3307 4.28794 10.5761C4.87461 10.8214 5.50394 10.9441 6.17594 10.9441ZM6.25594 9.50406C5.62661 9.50406 5.06128 9.36006 4.55994 9.07206C4.06928 8.77339 3.67994 8.37339 3.39194 7.87206C3.10394 7.36006 2.95994 6.78406 2.95994 6.14406C2.95994 5.49339 3.10394 4.91739 3.39194 4.41606C3.67994 3.91473 4.06928 3.52006 4.55994 3.23206C5.06128 2.94406 5.62661 2.80006 6.25594 2.80006C6.72528 2.80006 7.14661 2.88006 7.51995 3.04006C7.90394 3.18939 8.22928 3.39739 8.49594 3.66406C8.76261 3.92006 8.94928 4.21339 9.05594 4.54406L7.75994 5.07206C7.65328 4.80539 7.46661 4.57606 7.19994 4.38406C6.94394 4.19206 6.62928 4.09606 6.25594 4.09606C5.70128 4.09606 5.25328 4.28806 4.91194 4.67206C4.57061 5.04539 4.39994 5.53606 4.39994 6.14406C4.39994 6.75206 4.57061 7.24806 4.91194 7.63206C5.25328 8.01606 5.70128 8.20806 6.25594 8.20806C6.61861 8.20806 6.92794 8.11739 7.18394 7.93606C7.45061 7.74406 7.64261 7.50406 7.75994 7.21606L9.05594 7.76006C8.94928 8.08006 8.76261 8.37339 8.49594 8.64006C8.22928 8.90673 7.90394 9.12006 7.51995 9.28006C7.14661 9.42939 6.72528 9.50406 6.25594 9.50406ZM14.0292 12.1121V10.7521L17.2932 7.26406C17.9332 6.58139 18.4345 6.03206 18.7972 5.61606C19.1705 5.18939 19.4372 4.81606 19.5972 4.49606C19.7679 4.17606 19.8532 3.84006 19.8532 3.48806C19.8532 2.91206 19.6772 2.46939 19.3252 2.16006C18.9732 1.84006 18.5199 1.68006 17.9652 1.68006C17.3892 1.68006 16.8932 1.84539 16.4772 2.17606C16.0612 2.49606 15.7732 2.96539 15.6132 3.58406L13.9492 3.10406C14.0772 2.47473 14.3332 1.93073 14.7172 1.47206C15.1012 1.00273 15.5705 0.64006 16.1252 0.38406C16.6905 0.12806 17.2985 6.00815e-05 17.9492 6.00815e-05C18.7065 6.00815e-05 19.3679 0.14406 19.9332 0.43206C20.4985 0.709393 20.9359 1.09873 21.2452 1.60006C21.5652 2.10139 21.7252 2.68273 21.7252 3.34406C21.7252 3.78139 21.6399 4.20806 21.4692 4.62406C21.3092 5.02939 21.0585 5.46139 20.7172 5.92006C20.3759 6.36806 19.9385 6.87473 19.4052 7.44006L16.5252 10.5121H21.9492V12.1121H14.0292ZM28.2157 12.3041C27.2664 12.3041 26.4344 12.0481 25.7197 11.5361C25.005 11.0134 24.445 10.2934 24.0397 9.37606C23.645 8.44806 23.4477 7.37073 23.4477 6.14406C23.4477 4.90673 23.645 3.82939 24.0397 2.91206C24.445 1.99473 24.9997 1.28006 25.7037 0.76806C26.4184 0.25606 27.2504 6.00815e-05 28.1997 6.00815e-05C29.149 6.00815e-05 29.9757 0.25606 30.6797 0.76806C31.3944 1.28006 31.949 2.00006 32.3437 2.92806C32.749 3.84539 32.9517 4.91739 32.9517 6.14406C32.9517 7.37073 32.7544 8.44806 32.3597 9.37606C31.965 10.2934 31.4104 11.0134 30.6957 11.5361C29.9917 12.0481 29.165 12.3041 28.2157 12.3041ZM28.2157 10.5761C28.8024 10.5761 29.309 10.3947 29.7357 10.0321C30.1624 9.66939 30.493 9.15739 30.7277 8.49606C30.9624 7.83473 31.0797 7.05073 31.0797 6.14406C31.0797 5.23739 30.9624 4.45339 30.7277 3.79206C30.493 3.13073 30.1624 2.61873 29.7357 2.25606C29.309 1.89339 28.797 1.71206 28.1997 1.71206C27.613 1.71206 27.1064 1.89339 26.6797 2.25606C26.253 2.61873 25.9224 3.13073 25.6877 3.79206C25.453 4.45339 25.3357 5.23739 25.3357 6.14406C25.3357 7.04006 25.453 7.82406 25.6877 8.49606C25.9224 9.15739 26.253 9.66939 26.6797 10.0321C27.117 10.3947 27.629 10.5761 28.2157 10.5761ZM34.4048 12.1121V10.7521L37.6688 7.26406C38.3088 6.58139 38.8102 6.03206 39.1728 5.61606C39.5462 5.18939 39.8128 4.81606 39.9728 4.49606C40.1435 4.17606 40.2288 3.84006 40.2288 3.48806C40.2288 2.91206 40.0528 2.46939 39.7008 2.16006C39.3488 1.84006 38.8955 1.68006 38.3408 1.68006C37.7648 1.68006 37.2688 1.84539 36.8528 2.17606C36.4368 2.49606 36.1488 2.96539 35.9888 3.58406L34.3248 3.10406C34.4528 2.47473 34.7088 1.93073 35.0928 1.47206C35.4768 1.00273 35.9462 0.64006 36.5008 0.38406C37.0662 0.12806 37.6742 6.00815e-05 38.3248 6.00815e-05C39.0822 6.00815e-05 39.7435 0.14406 40.3088 0.43206C40.8742 0.709393 41.3115 1.09873 41.6208 1.60006C41.9408 2.10139 42.1008 2.68273 42.1008 3.34406C42.1008 3.78139 42.0155 4.20806 41.8448 4.62406C41.6848 5.02939 41.4342 5.46139 41.0928 5.92006C40.7515 6.36806 40.3142 6.87473 39.7808 7.44006L36.9008 10.5121H42.3248V12.1121H34.4048ZM43.6473 12.1121V10.7521L46.9113 7.26406C47.5513 6.58139 48.0527 6.03206 48.4153 5.61606C48.7887 5.18939 49.0553 4.81606 49.2153 4.49606C49.386 4.17606 49.4713 3.84006 49.4713 3.48806C49.4713 2.91206 49.2953 2.46939 48.9433 2.16006C48.5913 1.84006 48.138 1.68006 47.5833 1.68006C47.0073 1.68006 46.5113 1.84539 46.0953 2.17606C45.6793 2.49606 45.3913 2.96539 45.2313 3.58406L43.5673 3.10406C43.6953 2.47473 43.9513 1.93073 44.3353 1.47206C44.7193 1.00273 45.1887 0.64006 45.7433 0.38406C46.3087 0.12806 46.9167 6.00815e-05 47.5673 6.00815e-05C48.3247 6.00815e-05 48.986 0.14406 49.5513 0.43206C50.1167 0.709393 50.554 1.09873 50.8633 1.60006C51.1833 2.10139 51.3433 2.68273 51.3433 3.34406C51.3433 3.78139 51.258 4.20806 51.0873 4.62406C50.9273 5.02939 50.6767 5.46139 50.3353 5.92006C49.994 6.36806 49.5567 6.87473 49.0233 7.44006L46.1433 10.5121H51.5673V12.1121H43.6473ZM55.7987 12.1121V0.19206H57.5587L62.0387 6.40006H61.1587L65.5587 0.19206H67.3187V12.1121H65.4467V2.41606L66.1507 2.60806L61.6547 8.75206H61.4627L57.0627 2.60806L57.6867 2.41606V12.1121H55.7987ZM75.2551 12.3041C74.3911 12.3041 73.5857 12.1494 72.8391 11.8401C72.1031 11.5307 71.4524 11.0987 70.8871 10.5441C70.3324 9.98939 69.8951 9.33873 69.5751 8.59206C69.2657 7.84539 69.1111 7.02939 69.1111 6.14406C69.1111 5.25873 69.2657 4.44273 69.5751 3.69606C69.8951 2.93873 70.3324 2.28806 70.8871 1.74406C71.4417 1.18939 72.0924 0.762726 72.8391 0.46406C73.5857 0.154727 74.3911 6.00815e-05 75.2551 6.00815e-05C76.1297 6.00815e-05 76.9351 0.154727 77.6711 0.46406C78.4177 0.762726 79.0684 1.18939 79.6231 1.74406C80.1884 2.29873 80.6257 2.94939 80.9351 3.69606C81.2444 4.44273 81.3991 5.25873 81.3991 6.14406C81.3991 7.02939 81.2391 7.84539 80.9191 8.59206C80.6097 9.33873 80.1777 9.98939 79.6231 10.5441C79.0684 11.0987 78.4177 11.5307 77.6711 11.8401C76.9244 12.1494 76.1191 12.3041 75.2551 12.3041ZM75.2551 10.5761C75.8737 10.5761 76.4391 10.4641 76.9511 10.2401C77.4737 10.0161 77.9271 9.70673 78.3111 9.31206C78.6951 8.90673 78.9937 8.43739 79.2071 7.90406C79.4204 7.36006 79.5271 6.77339 79.5271 6.14406C79.5271 5.51473 79.4204 4.93339 79.2071 4.40006C78.9937 3.86673 78.6951 3.39739 78.3111 2.99206C77.9271 2.58673 77.4737 2.27206 76.9511 2.04806C76.4391 1.82406 75.8737 1.71206 75.2551 1.71206C74.6364 1.71206 74.0657 1.82406 73.5431 2.04806C73.0311 2.27206 72.5831 2.58673 72.1991 2.99206C71.8151 3.39739 71.5164 3.86673 71.3031 4.40006C71.1004 4.93339 70.9991 5.51473 70.9991 6.14406C70.9991 6.77339 71.1004 7.36006 71.3031 7.90406C71.5164 8.43739 71.8151 8.90673 72.1991 9.31206C72.5831 9.70673 73.0364 10.0161 73.5591 10.2401C74.0817 10.4641 74.6471 10.5761 75.2551 10.5761ZM83.1899 12.1121V0.19206H87.5259C88.3259 0.19206 89.0299 0.341393 89.6379 0.64006C90.2459 0.92806 90.7206 1.35473 91.0619 1.92006C91.4139 2.47473 91.5899 3.14139 91.5899 3.92006C91.5899 4.74139 91.3819 5.44539 90.9659 6.03206C90.5606 6.61873 90.0113 7.04539 89.3179 7.31206L92.0699 12.1121H89.9259L86.9979 6.91206L88.2299 7.63206H85.0779V12.1121H83.1899ZM85.0779 5.95206H87.5579C87.9953 5.95206 88.3739 5.86673 88.6939 5.69606C89.0139 5.52539 89.2593 5.29073 89.4299 4.99206C89.6113 4.68273 89.7019 4.32006 89.7019 3.90406C89.7019 3.48806 89.6113 3.13073 89.4299 2.83206C89.2593 2.52273 89.0139 2.28806 88.6939 2.12806C88.3739 1.95739 87.9953 1.87206 87.5579 1.87206H85.0779V5.95206ZM93.3387 12.1121V0.19206H101.195V1.87206H95.2267V5.29606H100.875V6.97606H95.2267V10.4321H101.195V12.1121H93.3387ZM102.628 12.1121V0.19206H104.148L110.836 9.42406L110.116 9.53606V0.19206H111.988V12.1121H110.468L103.828 2.81606L104.516 2.68806V12.1121H102.628ZM116.248 12.1121V1.87206H113.08V0.19206H121.24V1.87206H118.12V12.1121H116.248ZM122.081 12.1121V10.0321H123.921V12.1121H122.081ZM128.105 12.1121L132.297 0.19206H134.633L138.825 12.1121H136.809L135.897 9.44006H131.049L130.121 12.1121H128.105ZM131.593 7.76006H135.321L133.209 1.52006H133.737L131.593 7.76006ZM139.743 12.1121V6.00815e-05H141.551V12.1121H139.743ZM143.345 12.1121V6.00815e-05H145.153V12.1121H143.345ZM149.423 12.1121V3.45606H151.151V5.20006L150.991 4.94406C151.183 4.37873 151.493 3.97339 151.919 3.72806C152.346 3.47206 152.858 3.34406 153.455 3.34406H153.983V4.99206H153.231C152.634 4.99206 152.149 5.17873 151.775 5.55206C151.413 5.91473 151.231 6.43739 151.231 7.12006V12.1121H149.423ZM154.9 12.1121V3.45606H156.708V12.1121H154.9ZM154.9 2.27206V0.19206H156.708V2.27206H154.9ZM162.678 15.6321C162.049 15.6321 161.467 15.5307 160.934 15.3281C160.401 15.1254 159.942 14.8427 159.558 14.4801C159.174 14.1281 158.886 13.7121 158.694 13.2321L160.358 12.5441C160.507 12.9494 160.779 13.2854 161.174 13.5521C161.579 13.8187 162.075 13.9521 162.662 13.9521C163.121 13.9521 163.531 13.8614 163.894 13.6801C164.257 13.5094 164.545 13.2534 164.758 12.9121C164.971 12.5814 165.078 12.1814 165.078 11.7121V9.76006L165.398 10.1281C165.099 10.6827 164.683 11.1041 164.15 11.3921C163.627 11.6801 163.035 11.8241 162.374 11.8241C161.574 11.8241 160.854 11.6374 160.214 11.2641C159.574 10.8907 159.067 10.3787 158.694 9.72806C158.331 9.07739 158.15 8.34673 158.15 7.53606C158.15 6.71473 158.331 5.98406 158.694 5.34406C159.067 4.70406 159.569 4.19739 160.198 3.82406C160.827 3.45073 161.547 3.26406 162.358 3.26406C163.019 3.26406 163.606 3.40806 164.118 3.69606C164.641 3.97339 165.067 4.37873 165.398 4.91206L165.158 5.36006V3.45606H166.87V11.7121C166.87 12.4587 166.689 13.1254 166.326 13.7121C165.974 14.3094 165.483 14.7787 164.854 15.1201C164.225 15.4614 163.499 15.6321 162.678 15.6321ZM162.582 10.1441C163.062 10.1441 163.489 10.0321 163.862 9.80806C164.235 9.57339 164.529 9.26406 164.742 8.88006C164.966 8.48539 165.078 8.04273 165.078 7.55206C165.078 7.06139 164.966 6.61873 164.742 6.22406C164.518 5.82939 164.219 5.52006 163.846 5.29606C163.473 5.06139 163.051 4.94406 162.582 4.94406C162.091 4.94406 161.654 5.06139 161.27 5.29606C160.886 5.52006 160.582 5.82939 160.358 6.22406C160.145 6.60806 160.038 7.05073 160.038 7.55206C160.038 8.03206 160.145 8.46939 160.358 8.86406C160.582 9.25873 160.886 9.57339 161.27 9.80806C161.654 10.0321 162.091 10.1441 162.582 10.1441ZM168.666 12.1121V6.00815e-05H170.474V5.15206L170.186 4.92806C170.4 4.38406 170.741 3.97339 171.21 3.69606C171.68 3.40806 172.224 3.26406 172.842 3.26406C173.482 3.26406 174.048 3.40273 174.538 3.68006C175.029 3.95739 175.413 4.34139 175.69 4.83206C175.968 5.32273 176.106 5.88273 176.106 6.51206V12.1121H174.314V7.00806C174.314 6.57073 174.229 6.20273 174.058 5.90406C173.898 5.59473 173.674 5.36006 173.386 5.20006C173.098 5.02939 172.768 4.94406 172.394 4.94406C172.032 4.94406 171.701 5.02939 171.402 5.20006C171.114 5.36006 170.885 5.59473 170.714 5.90406C170.554 6.21339 170.474 6.58139 170.474 7.00806V12.1121H168.666ZM181.465 12.2081C180.559 12.2081 179.855 11.9521 179.353 11.4401C178.852 10.9281 178.601 10.2081 178.601 9.28006V5.08806H177.081V3.45606H177.321C177.727 3.45606 178.041 3.33873 178.265 3.10406C178.489 2.86939 178.601 2.54939 178.601 2.14406V1.47206H180.409V3.45606H182.377V5.08806H180.409V9.20006C180.409 9.49873 180.457 9.75473 180.553 9.96806C180.649 10.1707 180.804 10.3307 181.017 10.4481C181.231 10.5547 181.508 10.6081 181.849 10.6081C181.935 10.6081 182.031 10.6027 182.137 10.5921C182.244 10.5814 182.345 10.5707 182.441 10.5601V12.1121C182.292 12.1334 182.127 12.1547 181.945 12.1761C181.764 12.1974 181.604 12.2081 181.465 12.2081ZM187.086 12.3041C186.2 12.3041 185.422 12.0854 184.75 11.6481C184.088 11.2107 183.624 10.6241 183.358 9.88806L184.75 9.23206C184.984 9.72273 185.304 10.1121 185.71 10.4001C186.126 10.6881 186.584 10.8321 187.086 10.8321C187.512 10.8321 187.859 10.7361 188.126 10.5441C188.392 10.3521 188.526 10.0907 188.526 9.76006C188.526 9.54673 188.467 9.37606 188.35 9.24806C188.232 9.10939 188.083 8.99739 187.902 8.91206C187.731 8.82673 187.555 8.76273 187.374 8.72006L186.014 8.33606C185.267 8.12273 184.707 7.80273 184.334 7.37606C183.971 6.93873 183.79 6.43206 183.79 5.85606C183.79 5.33339 183.923 4.88006 184.19 4.49606C184.456 4.10139 184.824 3.79739 185.294 3.58406C185.763 3.37073 186.291 3.26406 186.878 3.26406C187.667 3.26406 188.371 3.46139 188.99 3.85606C189.608 4.24006 190.046 4.77873 190.302 5.47206L188.91 6.12806C188.739 5.71206 188.467 5.38139 188.094 5.13606C187.731 4.89073 187.32 4.76806 186.862 4.76806C186.467 4.76806 186.152 4.86406 185.918 5.05606C185.683 5.23739 185.566 5.47739 185.566 5.77606C185.566 5.97873 185.619 6.14939 185.726 6.28806C185.832 6.41606 185.971 6.52273 186.142 6.60806C186.312 6.68273 186.488 6.74673 186.67 6.80006L188.078 7.21606C188.792 7.41873 189.342 7.73873 189.726 8.17606C190.11 8.60273 190.302 9.11473 190.302 9.71206C190.302 10.2241 190.163 10.6774 189.886 11.0721C189.619 11.4561 189.246 11.7601 188.766 11.9841C188.286 12.1974 187.726 12.3041 187.086 12.3041ZM194.23 12.1121V3.45606H195.958V5.20006L195.798 4.94406C195.99 4.37873 196.3 3.97339 196.726 3.72806C197.153 3.47206 197.665 3.34406 198.262 3.34406H198.79V4.99206H198.038C197.441 4.99206 196.956 5.17873 196.582 5.55206C196.22 5.91473 196.038 6.43739 196.038 7.12006V12.1121H194.23ZM203.771 12.3041C202.907 12.3041 202.139 12.1067 201.467 11.7121C200.806 11.3067 200.288 10.7627 199.915 10.0801C199.542 9.38673 199.355 8.61339 199.355 7.76006C199.355 6.88539 199.542 6.11206 199.915 5.44006C200.299 4.76806 200.811 4.24006 201.451 3.85606C202.091 3.46139 202.816 3.26406 203.627 3.26406C204.278 3.26406 204.859 3.37606 205.371 3.60006C205.883 3.82406 206.315 4.13339 206.667 4.52806C207.019 4.91206 207.286 5.35473 207.467 5.85606C207.659 6.35739 207.755 6.89073 207.755 7.45606C207.755 7.59473 207.75 7.73873 207.739 7.88806C207.728 8.03739 207.707 8.17606 207.675 8.30406H200.779V6.86406H206.651L205.787 7.52006C205.894 6.99739 205.856 6.53339 205.675 6.12806C205.504 5.71206 205.238 5.38673 204.875 5.15206C204.523 4.90673 204.107 4.78406 203.627 4.78406C203.147 4.78406 202.72 4.90673 202.347 5.15206C201.974 5.38673 201.686 5.72806 201.483 6.17606C201.28 6.61339 201.2 7.14673 201.243 7.77606C201.19 8.36273 201.27 8.87473 201.483 9.31206C201.707 9.74939 202.016 10.0907 202.411 10.3361C202.816 10.5814 203.275 10.7041 203.787 10.7041C204.31 10.7041 204.752 10.5867 205.115 10.3521C205.488 10.1174 205.782 9.81339 205.995 9.44006L207.467 10.1601C207.296 10.5654 207.03 10.9334 206.667 11.2641C206.315 11.5841 205.888 11.8401 205.387 12.0321C204.896 12.2134 204.358 12.3041 203.771 12.3041ZM212.4 12.3041C211.514 12.3041 210.736 12.0854 210.064 11.6481C209.402 11.2107 208.938 10.6241 208.672 9.88806L210.064 9.23206C210.298 9.72273 210.618 10.1121 211.024 10.4001C211.44 10.6881 211.898 10.8321 212.4 10.8321C212.826 10.8321 213.173 10.7361 213.44 10.5441C213.706 10.3521 213.84 10.0907 213.84 9.76006C213.84 9.54673 213.781 9.37606 213.664 9.24806C213.546 9.10939 213.397 8.99739 213.216 8.91206C213.045 8.82673 212.869 8.76273 212.688 8.72006L211.328 8.33606C210.581 8.12273 210.021 7.80273 209.648 7.37606C209.285 6.93873 209.104 6.43206 209.104 5.85606C209.104 5.33339 209.237 4.88006 209.504 4.49606C209.77 4.10139 210.138 3.79739 210.608 3.58406C211.077 3.37073 211.605 3.26406 212.192 3.26406C212.981 3.26406 213.685 3.46139 214.304 3.85606C214.922 4.24006 215.36 4.77873 215.616 5.47206L214.224 6.12806C214.053 5.71206 213.781 5.38139 213.408 5.13606C213.045 4.89073 212.634 4.76806 212.176 4.76806C211.781 4.76806 211.466 4.86406 211.232 5.05606C210.997 5.23739 210.88 5.47739 210.88 5.77606C210.88 5.97873 210.933 6.14939 211.04 6.28806C211.146 6.41606 211.285 6.52273 211.456 6.60806C211.626 6.68273 211.802 6.74673 211.984 6.80006L213.392 7.21606C214.106 7.41873 214.656 7.73873 215.04 8.17606C215.424 8.60273 215.616 9.11473 215.616 9.71206C215.616 10.2241 215.477 10.6774 215.2 11.0721C214.933 11.4561 214.56 11.7601 214.08 11.9841C213.6 12.1974 213.04 12.3041 212.4 12.3041ZM221.131 12.3041C220.267 12.3041 219.499 12.1067 218.827 11.7121C218.166 11.3067 217.648 10.7627 217.275 10.0801C216.902 9.38673 216.715 8.61339 216.715 7.76006C216.715 6.88539 216.902 6.11206 217.275 5.44006C217.659 4.76806 218.171 4.24006 218.811 3.85606C219.451 3.46139 220.176 3.26406 220.987 3.26406C221.638 3.26406 222.219 3.37606 222.731 3.60006C223.243 3.82406 223.675 4.13339 224.027 4.52806C224.379 4.91206 224.646 5.35473 224.827 5.85606C225.019 6.35739 225.115 6.89073 225.115 7.45606C225.115 7.59473 225.11 7.73873 225.099 7.88806C225.088 8.03739 225.067 8.17606 225.035 8.30406H218.139V6.86406H224.011L223.147 7.52006C223.254 6.99739 223.216 6.53339 223.035 6.12806C222.864 5.71206 222.598 5.38673 222.235 5.15206C221.883 4.90673 221.467 4.78406 220.987 4.78406C220.507 4.78406 220.08 4.90673 219.707 5.15206C219.334 5.38673 219.046 5.72806 218.843 6.17606C218.64 6.61339 218.56 7.14673 218.603 7.77606C218.55 8.36273 218.63 8.87473 218.843 9.31206C219.067 9.74939 219.376 10.0907 219.771 10.3361C220.176 10.5814 220.635 10.7041 221.147 10.7041C221.67 10.7041 222.112 10.5867 222.475 10.3521C222.848 10.1174 223.142 9.81339 223.355 9.44006L224.827 10.1601C224.656 10.5654 224.39 10.9334 224.027 11.2641C223.675 11.5841 223.248 11.8401 222.747 12.0321C222.256 12.2134 221.718 12.3041 221.131 12.3041ZM226.56 12.1121V3.45606H228.288V5.20006L228.128 4.94406C228.32 4.37873 228.629 3.97339 229.056 3.72806C229.482 3.47206 229.994 3.34406 230.592 3.34406H231.12V4.99206H230.368C229.77 4.99206 229.285 5.17873 228.912 5.55206C228.549 5.91473 228.368 6.43739 228.368 7.12006V12.1121H226.56ZM234.548 12.1121L231.156 3.45606H233.124L235.732 10.5121H235.012L237.62 3.45606H239.604L236.196 12.1121H234.548ZM244.421 12.3041C243.557 12.3041 242.789 12.1067 242.117 11.7121C241.456 11.3067 240.938 10.7627 240.565 10.0801C240.192 9.38673 240.005 8.61339 240.005 7.76006C240.005 6.88539 240.192 6.11206 240.565 5.44006C240.949 4.76806 241.461 4.24006 242.101 3.85606C242.741 3.46139 243.466 3.26406 244.277 3.26406C244.928 3.26406 245.509 3.37606 246.021 3.60006C246.533 3.82406 246.965 4.13339 247.317 4.52806C247.669 4.91206 247.936 5.35473 248.117 5.85606C248.309 6.35739 248.405 6.89073 248.405 7.45606C248.405 7.59473 248.4 7.73873 248.389 7.88806C248.378 8.03739 248.357 8.17606 248.325 8.30406H241.429V6.86406H247.301L246.437 7.52006C246.544 6.99739 246.506 6.53339 246.325 6.12806C246.154 5.71206 245.888 5.38673 245.525 5.15206C245.173 4.90673 244.757 4.78406 244.277 4.78406C243.797 4.78406 243.37 4.90673 242.997 5.15206C242.624 5.38673 242.336 5.72806 242.133 6.17606C241.93 6.61339 241.85 7.14673 241.893 7.77606C241.84 8.36273 241.92 8.87473 242.133 9.31206C242.357 9.74939 242.666 10.0907 243.061 10.3361C243.466 10.5814 243.925 10.7041 244.437 10.7041C244.96 10.7041 245.402 10.5867 245.765 10.3521C246.138 10.1174 246.432 9.81339 246.645 9.44006L248.117 10.1601C247.946 10.5654 247.68 10.9334 247.317 11.2641C246.965 11.5841 246.538 11.8401 246.037 12.0321C245.546 12.2134 245.008 12.3041 244.421 12.3041ZM253.85 12.3041C253.018 12.3041 252.271 12.1067 251.61 11.7121C250.959 11.3067 250.442 10.7627 250.058 10.0801C249.684 9.39739 249.498 8.62939 249.498 7.77606C249.498 6.92273 249.69 6.15473 250.074 5.47206C250.458 4.78939 250.975 4.25073 251.626 3.85606C252.276 3.46139 253.012 3.26406 253.834 3.26406C254.527 3.26406 255.14 3.40273 255.674 3.68006C256.207 3.95739 256.628 4.34139 256.938 4.83206L256.666 5.24806V6.00815e-05H258.458V12.1121H256.746V10.3521L256.954 10.6881C256.655 11.2107 256.228 11.6107 255.674 11.8881C255.119 12.1654 254.511 12.3041 253.85 12.3041ZM254.026 10.6241C254.527 10.6241 254.975 10.5014 255.37 10.2561C255.775 10.0107 256.09 9.67473 256.314 9.24806C256.548 8.81073 256.666 8.32006 256.666 7.77606C256.666 7.23206 256.548 6.74673 256.314 6.32006C256.09 5.89339 255.775 5.55739 255.37 5.31206C254.975 5.06673 254.527 4.94406 254.026 4.94406C253.524 4.94406 253.071 5.06673 252.666 5.31206C252.26 5.55739 251.946 5.89339 251.722 6.32006C251.498 6.74673 251.386 7.23206 251.386 7.77606C251.386 8.32006 251.498 8.81073 251.722 9.24806C251.946 9.67473 252.255 10.0107 252.65 10.2561C253.055 10.5014 253.514 10.6241 254.026 10.6241Z" fill="#1A202C"/>
</svg>
